<svg width="435" height="303" viewBox="0 0 435 303" fill="none" xmlns="http://www.w3.org/2000/svg">
<path d="M86.6709 303C134.538 303 173.342 300.049 173.342 296.41C173.342 292.77 134.538 289.82 86.6709 289.82C38.8039 289.82 0 292.77 0 296.41C0 300.049 38.8039 303 86.6709 303Z" fill="#E6E6E6"/>
<path d="M66.2496 67.2304C81.3329 60.8076 100.119 64.877 118.467 67.7013C118.637 64.281 120.707 60.1184 118.539 57.7322C115.905 54.8332 116.148 51.7871 117.733 48.7235C121.785 40.8895 115.979 32.5536 110.116 25.6224C108.795 24.0637 107.125 22.839 105.242 22.0478C103.359 21.2565 101.316 20.9211 99.2795 21.0688L88.4196 21.8454C85.777 22.0343 83.255 23.0268 81.1912 24.6899C79.1273 26.3531 77.62 28.6076 76.871 31.1518V31.1518C74.2779 34.6826 72.89 38.2036 73.7638 41.7063C69.8797 44.3637 69.2272 47.5714 70.9725 51.1876C72.4525 53.4644 72.4368 55.6807 70.9052 57.8357C68.8938 60.5831 67.3532 63.6466 66.3467 66.9005L66.2496 67.2304Z" fill="#2F2E41"/>
<path d="M424.692 261.939H117.275C114.541 261.939 111.919 260.851 109.986 258.916C108.053 256.981 106.967 254.356 106.967 251.619C218.406 238.653 327.75 238.653 435 251.619C435 254.356 433.914 256.981 431.981 258.916C430.048 260.851 427.426 261.939 424.692 261.939Z" fill="#2F2E41"/>
<path d="M435 252.226L106.967 251.619L144.985 187.576L145.167 187.272V46.1291C145.167 44.416 145.504 42.7195 146.159 41.1367C146.813 39.5539 147.773 38.1158 148.983 36.9044C150.193 35.693 151.63 34.7321 153.211 34.0765C154.792 33.421 156.486 33.0837 158.197 33.0838H381.951C383.662 33.0837 385.357 33.421 386.937 34.0765C388.518 34.7321 389.955 35.693 391.165 36.9044C392.375 38.1158 393.335 39.5539 393.99 41.1367C394.644 42.7195 394.981 44.416 394.981 46.1291V188.244L435 252.226Z" fill="#3F3D56"/>
<path d="M157.9 42.1894C156.775 42.1907 155.696 42.6388 154.9 43.4354C154.105 44.232 153.657 45.3121 153.656 46.4387V175.132C153.657 176.258 154.105 177.338 154.9 178.135C155.696 178.931 156.775 179.38 157.9 179.381H384.067C385.192 179.38 386.271 178.931 387.067 178.135C387.862 177.338 388.31 176.258 388.311 175.132V46.4387C388.31 45.3121 387.863 44.2321 387.067 43.4355C386.271 42.6389 385.192 42.1907 384.067 42.1894H157.9Z" fill="white"/>
<path d="M158.848 196.378C158.5 196.379 158.16 196.479 157.867 196.667C157.574 196.854 157.341 197.122 157.195 197.438L145.481 222.934C145.353 223.211 145.297 223.516 145.319 223.821C145.34 224.126 145.437 224.42 145.602 224.677C145.766 224.935 145.993 225.146 146.26 225.293C146.528 225.439 146.828 225.516 147.133 225.516H393.482C393.793 225.516 394.097 225.437 394.368 225.286C394.639 225.134 394.867 224.916 395.03 224.652C395.193 224.388 395.286 224.087 395.299 223.777C395.313 223.467 395.248 223.158 395.109 222.88L382.376 197.385C382.226 197.082 381.994 196.827 381.706 196.649C381.419 196.471 381.087 196.377 380.749 196.378H158.848Z" fill="#2F2E41"/>
<path d="M270.074 40.0648C271.581 40.0648 272.803 38.8418 272.803 37.3331C272.803 35.8244 271.581 34.6014 270.074 34.6014C268.567 34.6014 267.346 35.8244 267.346 37.3331C267.346 38.8418 268.567 40.0648 270.074 40.0648Z" fill="white"/>
<path d="M245.86 230.372C245.46 230.373 245.071 230.505 244.754 230.749C244.437 230.992 244.208 231.334 244.104 231.72L241.165 242.647C241.093 242.917 241.083 243.2 241.137 243.474C241.191 243.748 241.308 244.006 241.478 244.228C241.647 244.45 241.866 244.63 242.116 244.753C242.367 244.877 242.642 244.941 242.921 244.941H298.804C299.094 244.941 299.38 244.872 299.638 244.739C299.896 244.606 300.118 244.413 300.286 244.177C300.454 243.94 300.563 243.667 300.605 243.379C300.646 243.092 300.618 242.799 300.523 242.525L296.745 231.598C296.621 231.24 296.389 230.93 296.081 230.71C295.773 230.491 295.404 230.373 295.026 230.372H245.86Z" fill="#2F2E41"/>
<path d="M394.981 185.148V187.576H144.985L145.173 187.273V185.148H394.981Z" fill="#2F2E41"/>
<path d="M388.008 84.9859C411.45 84.9859 430.452 65.9611 430.452 42.4929C430.452 19.0247 411.45 0 388.008 0C364.567 0 345.564 19.0247 345.564 42.4929C345.564 65.9611 364.567 84.9859 388.008 84.9859Z" fill="#003087"/>
<path d="M405.592 61.0077H370.424C369.781 61.0071 369.165 60.7511 368.71 60.2958C368.255 59.8406 368 59.2234 367.999 58.5796V37.3331C368 36.6893 368.255 36.0721 368.71 35.6169C369.165 35.1617 369.781 34.9056 370.424 34.9049H405.592C406.235 34.9056 406.852 35.1617 407.307 35.6169C407.761 36.0721 408.017 36.6893 408.018 37.3331V58.5795C408.017 59.2233 407.761 59.8406 407.307 60.2958C406.852 60.7511 406.235 61.0071 405.592 61.0077ZM370.424 37.3331V58.5796H405.594L405.592 37.3331L370.424 37.3331Z" fill="white"/>
<path d="M398.923 37.3331H377.094V27.6204C377.094 20.5855 381.684 15.4796 388.008 15.4796C394.332 15.4796 398.922 20.5855 398.922 27.6204L398.923 37.3331ZM379.519 34.9049H396.497V27.6204C396.497 21.9018 393.006 17.9077 388.008 17.9077C383.01 17.9077 379.519 21.9018 379.519 27.6204L379.519 34.9049Z" fill="white"/>
<path d="M388.008 49.7774C389.348 49.7774 390.434 48.6903 390.434 47.3493C390.434 46.0082 389.348 44.9211 388.008 44.9211C386.669 44.9211 385.583 46.0082 385.583 47.3493C385.583 48.6903 386.669 49.7774 388.008 49.7774Z" fill="white"/>
<path d="M358.379 135.73H183.589C182.731 135.729 181.908 135.387 181.301 134.779C180.694 134.172 180.353 133.348 180.352 132.489V89.0813C180.353 88.2222 180.694 87.3985 181.301 86.791C181.908 86.1835 182.731 85.8417 183.589 85.8407H358.379C359.237 85.8417 360.059 86.1835 360.666 86.791C361.273 87.3985 361.614 88.2222 361.615 89.0813V132.489C361.614 133.348 361.273 134.172 360.666 134.779C360.059 135.387 359.237 135.729 358.379 135.73V135.73ZM183.589 87.137C183.074 87.1375 182.58 87.3426 182.216 87.7071C181.852 88.0716 181.647 88.5658 181.647 89.0813V132.489C181.647 133.005 181.852 133.499 182.216 133.863C182.58 134.228 183.074 134.433 183.589 134.433H358.379C358.893 134.433 359.387 134.228 359.751 133.863C360.115 133.499 360.32 133.005 360.321 132.489V89.0813C360.32 88.5658 360.115 88.0716 359.751 87.707C359.387 87.3425 358.893 87.1375 358.379 87.137L183.589 87.137Z" fill="#E6E6E6"/>
<path d="M210.747 122.32C218.029 122.32 223.933 116.41 223.933 109.12C223.933 101.829 218.029 95.9193 210.747 95.9193C203.465 95.9193 197.562 101.829 197.562 109.12C197.562 116.41 203.465 122.32 210.747 122.32Z" fill="#E6E6E6"/>
<path d="M241.199 100.319C240.91 100.319 240.624 100.375 240.357 100.486C240.09 100.596 239.847 100.758 239.643 100.963C239.438 101.167 239.276 101.41 239.166 101.677C239.055 101.944 238.998 102.23 238.998 102.519C238.998 102.809 239.055 103.095 239.166 103.362C239.276 103.629 239.438 103.872 239.643 104.076C239.847 104.281 240.09 104.443 240.357 104.553C240.624 104.663 240.91 104.72 241.199 104.72H344.797C345.38 104.72 345.939 104.488 346.351 104.075C346.763 103.663 346.994 103.103 346.994 102.519C346.994 101.936 346.763 101.376 346.351 100.964C345.939 100.551 345.38 100.319 344.797 100.319H241.199Z" fill="#E6E6E6"/>
<path d="M241.199 113.52C240.616 113.52 240.057 113.751 239.645 114.164C239.233 114.577 239.001 115.136 239.001 115.72C239.001 116.303 239.233 116.863 239.645 117.275C240.057 117.688 240.616 117.92 241.199 117.92H285.777C286.36 117.92 286.919 117.688 287.331 117.275C287.743 116.863 287.975 116.303 287.975 115.72C287.975 115.136 287.743 114.577 287.331 114.164C286.919 113.751 286.36 113.52 285.777 113.52H241.199Z" fill="#E6E6E6"/>
<path d="M144.555 114.41L112.244 131.608L111.835 117.276C122.381 115.513 132.414 112.445 141.692 107.449L145.071 99.0901C145.439 98.1793 146.038 97.38 146.808 96.7707C147.578 96.1615 148.493 95.7631 149.463 95.6148C150.433 95.4664 151.425 95.5732 152.342 95.9247C153.258 96.2762 154.068 96.8602 154.691 97.6195V97.6195C155.602 98.7303 156.058 100.147 155.965 101.581C155.873 103.016 155.239 104.362 154.193 105.346L144.555 114.41Z" fill="#FFB8B8"/>
<path d="M65.6056 213.704C65.3698 212.839 65.3198 211.933 65.4587 211.047C65.5976 210.16 65.9224 209.314 66.4115 208.562L73.5094 197.657C75.1882 195.077 77.7642 193.214 80.7376 192.429C83.711 191.643 86.8698 191.992 89.6011 193.406V193.406C86.6181 198.49 87.0339 202.949 90.6313 206.825C85.0468 209.554 79.8854 213.077 75.307 217.284C74.4712 217.854 73.5113 218.217 72.5073 218.34C71.5033 218.464 70.4843 218.346 69.5352 217.996C68.586 217.646 67.7342 217.073 67.0507 216.327C66.3671 215.58 65.8717 214.681 65.6056 213.704V213.704Z" fill="#2F2E41"/>
<path d="M146.027 199.445C144.953 201.237 143.436 202.723 141.624 203.759C139.811 204.796 137.762 205.349 135.675 205.365L88.5215 205.722L86.4765 193.848L107.336 187.705L89.7485 174.193L108.972 151.672L143.887 184.251C145.928 186.156 147.253 188.704 147.643 191.469C148.032 194.235 147.462 197.05 146.027 199.445V199.445Z" fill="#2F2E41"/>
<path d="M81.1594 280.656H70.1163C60.2012 212.614 50.1086 144.381 79.9324 118.914L115.107 124.647L110.608 154.538L90.9755 177.059L81.1594 280.656Z" fill="#2F2E41"/>
<path d="M90.8668 296.069C90.0023 296.306 89.0977 296.356 88.2125 296.217C87.3272 296.078 86.4814 295.753 85.7306 295.263L73.7401 293.649C71.1636 291.969 69.3025 289.39 68.5178 286.413C67.7332 283.436 68.081 280.274 69.4938 277.539C74.5716 280.526 79.026 280.109 82.8968 276.507C85.6319 282.036 90.1382 281.699 94.4419 286.357C95.0118 287.193 95.3737 288.154 95.4974 289.16C95.6212 290.165 95.5033 291.185 95.1535 292.135C94.8038 293.085 94.2322 293.938 93.4866 294.623C92.7409 295.307 91.8427 295.803 90.8668 296.069V296.069Z" fill="#2F2E41"/>
<path d="M107.336 73.4624L86.8855 68.5487C90.2819 61.5884 90.5616 53.8437 88.9304 45.6182L102.837 45.2087C103.272 55.4374 104.591 64.9936 107.336 73.4624Z" fill="#FFB8B8"/>
<path d="M112.956 136.976C98.0691 147.132 87.5504 137.323 79.5234 122.19C80.6388 112.929 78.8328 101.848 75.4879 89.8065C74.0003 84.4955 74.5557 78.8192 77.0444 73.8981C79.533 68.977 83.7742 65.1689 88.9304 63.2255V63.2255L106.518 70.5961C121.451 82.7826 124.39 95.983 118.788 109.906L112.956 136.976Z" fill="#003087"/>
<path d="M70.1163 83.6992L53.7562 92.2981L82.7954 109.496L86.836 119.474C87.1057 120.14 87.2371 120.854 87.2222 121.573C87.2072 122.291 87.0463 122.999 86.7491 123.653C86.452 124.308 86.0249 124.894 85.4938 125.378C84.9628 125.861 84.3389 126.232 83.6603 126.466V126.466C82.8889 126.732 82.0664 126.816 81.2572 126.711C80.448 126.606 79.6741 126.315 78.9961 125.86C78.318 125.406 77.7543 124.8 77.349 124.091C76.9437 123.382 76.7079 122.589 76.66 121.773L76.2514 114.819L39.3428 102.625C38.0993 102.215 36.9655 101.526 36.0272 100.611C35.0889 99.6967 34.3708 98.5804 33.9272 97.3469V97.3469C33.2807 95.5489 33.2477 93.587 33.8336 91.7683C34.4195 89.9496 35.5911 88.3766 37.1651 87.2955L66.8443 66.9108L70.1163 83.6992Z" fill="#FFB8B8"/>
<path d="M86.4764 85.3371C79.6533 82.3435 73.4488 85.5955 65.6173 88.2034L64.3903 66.5013C72.1666 62.3519 79.5808 61.2331 86.4765 64.454L86.4764 85.3371Z" fill="#003087"/>
<path d="M94.6385 55.9585C101.85 55.9585 107.695 50.1061 107.695 42.8869C107.695 35.6676 101.85 29.8152 94.6385 29.8152C87.4276 29.8152 81.5819 35.6676 81.5819 42.8869C81.5819 50.1061 87.4276 55.9585 94.6385 55.9585Z" fill="#FFB8B8"/>
<path d="M110.258 41.2375C97.3313 42.5051 87.4809 40.3885 81.1854 34.3618V29.5083H109.161L110.258 41.2375Z" fill="#2F2E41"/>
</svg>
