<svg width="328" height="293" viewBox="0 0 328 293" fill="none" xmlns="http://www.w3.org/2000/svg">
<g clip-path="url(#clip0)">
<path d="M40.0024 228.237L36.3391 213.803C29.8435 211.053 23.1978 208.671 16.4336 206.669L15.971 213.377L14.0954 205.987C5.7068 203.594 0 202.539 0 202.539C0 202.539 7.70857 231.824 23.8767 254.212L42.7162 257.518L28.0803 259.626C30.115 262.071 32.3016 264.386 34.6272 266.557C58.1473 288.367 84.3443 298.373 93.1398 288.907C101.935 279.441 89.9986 254.086 66.4785 232.276C59.187 225.515 50.0274 220.089 40.8586 215.819L40.0024 228.237Z" fill="#E6E6E6"/>
<path d="M74.8434 212.562L79.176 198.314C75.0384 192.605 70.5819 187.135 65.8275 181.928L61.9606 187.431L64.1789 180.136C58.236 173.756 53.8961 169.907 53.8961 169.907C53.8961 169.907 45.3429 198.956 47.5997 226.47L62.0165 239.028L48.3968 233.275C48.8734 236.419 49.5474 239.53 50.4149 242.589C59.2644 273.405 76.5126 295.499 88.94 291.937C101.367 288.375 104.268 260.507 95.4184 229.691C92.675 220.138 87.6414 210.763 82.002 202.373L74.8434 212.562Z" fill="#E6E6E6"/>
<path d="M281.099 270.841L283.825 267.9C283.495 266.032 283.06 264.184 282.521 262.364L280.937 263.243L282.333 261.737C281.645 259.494 281.047 258.052 281.047 258.052C281.047 258.052 275.557 264.081 272.866 271.009L274.879 275.743L272.258 272.75C272.003 273.567 271.8 274.4 271.65 275.243C270.166 283.744 271.743 291.119 275.171 291.716C278.599 292.314 282.581 285.906 284.065 277.405C284.473 274.689 284.462 271.927 284.032 269.215L281.099 270.841Z" fill="#E6E6E6"/>
<path d="M321.427 276.658L325.283 275.547C325.967 273.778 326.551 271.971 327.031 270.136L325.22 270.07L327.194 269.501C327.766 267.226 328 265.683 328 265.683C328 265.683 320.181 268.009 314.292 272.549L313.566 277.642L312.871 273.726C312.23 274.294 311.626 274.902 311.061 275.546C305.392 282.057 302.926 289.185 305.551 291.467C308.177 293.748 314.901 290.32 320.57 283.808C322.324 281.694 323.744 279.324 324.779 276.78L321.427 276.658Z" fill="#E6E6E6"/>
<path d="M213.652 19.8792V271.876C213.651 277.148 211.554 282.203 207.823 285.931C204.091 289.659 199.03 291.754 193.753 291.755H95.7264C90.4479 291.756 85.3853 289.662 81.652 285.934C77.9187 282.206 75.8206 277.149 75.8191 271.876V19.8792C75.8206 14.6059 77.9188 9.5492 81.652 5.82123C85.3853 2.09325 90.4479 -0.000680135 95.7264 -1.51004e-05H107.618C107.034 1.43446 106.812 2.99026 106.971 4.53063C107.13 6.07099 107.665 7.54877 108.529 8.83407C109.394 10.1194 110.561 11.1728 111.929 11.9019C113.296 12.6309 114.822 13.0132 116.372 13.0151H172.261C173.811 13.0132 175.337 12.6309 176.704 11.9019C178.072 11.1729 179.239 10.1194 180.104 8.8341C180.968 7.5488 181.503 6.07101 181.662 4.53064C181.821 2.99026 181.599 1.43446 181.015 -8.81916e-06H193.753C199.03 0.00105744 204.091 2.09581 207.822 5.82364C211.554 9.55148 213.651 14.6072 213.652 19.8792V19.8792Z" fill="#3F3D56"/>
<path d="M130.923 104.37C130.923 102.643 131.377 100.947 132.242 99.4524C133.106 97.9574 134.349 96.7162 135.846 95.8536C134.349 94.9898 132.651 94.5349 130.923 94.5345C129.194 94.5342 127.496 94.9884 125.999 95.8515C124.502 96.7146 123.259 97.9562 122.395 99.4515C121.531 100.947 121.076 102.643 121.076 104.37C121.076 106.096 121.531 107.793 122.395 109.288C123.259 110.783 124.502 112.025 125.999 112.888C127.496 113.751 129.194 114.205 130.923 114.205C132.651 114.205 134.349 113.75 135.846 112.886C134.349 112.023 133.106 110.782 132.242 109.287C131.377 107.792 130.923 106.096 130.923 104.37V104.37Z" fill="white"/>
<path d="M143.3 104.37C143.299 102.643 143.754 100.947 144.618 99.4524C145.482 97.9574 146.725 96.7162 148.222 95.8536C146.726 94.9898 145.028 94.5349 143.299 94.5345C141.571 94.5342 139.873 94.9884 138.376 95.8515C136.879 96.7146 135.636 97.9562 134.772 99.4515C133.907 100.947 133.452 102.643 133.452 104.37C133.452 106.096 133.907 107.793 134.772 109.288C135.636 110.783 136.879 112.025 138.376 112.888C139.873 113.751 141.571 114.205 143.299 114.205C145.028 114.205 146.726 113.75 148.222 112.886C146.725 112.023 145.482 110.782 144.618 109.287C143.754 107.792 143.299 106.096 143.3 104.37V104.37Z" fill="white"/>
<path d="M155.395 114.205C160.832 114.205 165.24 109.802 165.24 104.37C165.24 98.9379 160.832 94.5346 155.395 94.5346C149.958 94.5346 145.55 98.9379 145.55 104.37C145.55 109.802 149.958 114.205 155.395 114.205Z" fill="#003087"/>
<path d="M188.781 168.737H100.779V169.56H188.781V168.737Z" fill="white"/>
<path d="M103.559 163.596C105.093 163.596 106.338 162.353 106.338 160.82C106.338 159.286 105.093 158.043 103.559 158.043C102.024 158.043 100.78 159.286 100.78 160.82C100.78 162.353 102.024 163.596 103.559 163.596Z" fill="#003087"/>
<path d="M188.781 196.499H100.779V197.322H188.781V196.499Z" fill="white"/>
<path d="M103.559 191.358C105.093 191.358 106.338 190.115 106.338 188.582C106.338 187.049 105.093 185.806 103.559 185.806C102.024 185.806 100.78 187.049 100.78 188.582C100.78 190.115 102.024 191.358 103.559 191.358Z" fill="#003087"/>
<path d="M171.848 135.089H114.47C113.924 135.088 113.4 134.871 113.014 134.485C112.627 134.099 112.41 133.576 112.41 133.03V75.7094C112.41 75.1637 112.627 74.6405 113.014 74.2547C113.4 73.8688 113.924 73.6518 114.47 73.6511H171.848C172.394 73.6518 172.918 73.8688 173.304 74.2547C173.69 74.6405 173.908 75.1637 173.908 75.7094V133.03C173.908 133.576 173.69 134.099 173.304 134.485C172.918 134.871 172.394 135.088 171.848 135.089V135.089ZM114.47 74.4744C114.142 74.4748 113.828 74.605 113.596 74.8365C113.364 75.068 113.234 75.3819 113.234 75.7094V133.03C113.234 133.358 113.364 133.672 113.596 133.903C113.828 134.135 114.142 134.265 114.47 134.265H171.848C172.176 134.265 172.49 134.135 172.722 133.903C172.953 133.672 173.084 133.358 173.084 133.03V75.7094C173.084 75.3819 172.953 75.068 172.722 74.8365C172.49 74.605 172.176 74.4748 171.848 74.4744H114.47Z" fill="white"/>
<path d="M187.133 214.956H159.397C158.487 214.956 157.749 215.693 157.749 216.602V226.265C157.749 227.174 158.487 227.912 159.397 227.912H187.133C188.043 227.912 188.781 227.174 188.781 226.265V216.602C188.781 215.693 188.043 214.956 187.133 214.956Z" fill="#003087"/>
<path d="M328 291.352H0.327576V292.175H328V291.352Z" fill="#3F3D56"/>
<path d="M265.581 133.82C265.581 133.82 264.441 141.037 265.581 142.177C266.722 143.316 258.357 152.813 258.357 152.813L251.512 143.316C251.512 143.316 254.554 138.378 253.414 134.199L265.581 133.82Z" fill="#FFB8B8"/>
<path d="M240.487 188.14L235.542 240.941L237.441 281.966L246.567 279.307L246.949 242.461L257.597 210.552L264.06 245.12L263.298 280.068L274.706 280.448L275.468 241.702L276.804 187.586L240.487 188.14Z" fill="#2F2E41"/>
<path d="M263.68 278.928V287.285C263.68 287.285 261.779 293.363 267.863 292.983C273.947 292.603 273.567 289.944 273.567 289.944L271.285 279.688L263.68 278.928Z" fill="#2F2E41"/>
<path d="M246.189 278.928V287.285C246.189 287.285 248.09 293.363 242.006 292.983C235.922 292.603 236.303 289.944 236.303 289.944L238.584 279.688L246.189 278.928Z" fill="#2F2E41"/>
<path d="M259.117 137.998C263.947 137.998 267.863 134.086 267.863 129.261C267.863 124.436 263.947 120.524 259.117 120.524C254.287 120.524 250.372 124.436 250.372 129.261C250.372 134.086 254.287 137.998 259.117 137.998Z" fill="#FFB8B8"/>
<path d="M258.737 148.634L259.498 144.836H261.399L265.075 139.552L268.243 142.556L269.004 160.41H248.47L250.372 141.417L253.14 139.552C253.14 139.552 252.653 145.975 257.977 145.975L258.737 148.634Z" fill="#575A89"/>
<path d="M250.752 144.456C250.752 144.456 253.901 148.438 258.6 148.156C263.3 147.875 267.863 144.076 267.863 144.076L274.327 193.458C274.327 193.458 267.102 194.218 264.821 190.419L247.33 190.04L247.71 144.076L250.752 144.456Z" fill="#D0CDE1"/>
<path d="M253.319 138.897L236.683 147.115L240.866 170.666C240.866 170.666 242.387 179.403 240.866 182.822C239.345 186.241 237.824 209.033 237.824 209.033C237.824 209.033 254.935 210.932 252.653 183.962C250.372 156.991 253.319 138.897 253.319 138.897Z" fill="#2F2E41"/>
<path d="M243.147 195.738L245.428 198.017C245.428 198.017 252.273 209.793 255.315 205.614C258.357 201.435 249.991 194.218 249.991 194.218L246.189 191.179L243.147 195.738Z" fill="#FFB8B8"/>
<path d="M265.084 138.897L281.552 147.115L275.848 175.225C275.848 175.225 276.228 184.342 278.129 189.28C280.031 194.218 279.27 208.653 279.27 208.653C279.27 208.653 276.989 217.39 272.046 195.738C267.102 174.085 265.084 138.897 265.084 138.897Z" fill="#2F2E41"/>
<path d="M277.749 182.062H274.327C274.327 182.062 262.92 180.543 263.68 185.101C264.441 189.66 275.088 188.52 275.088 188.52L279.27 188.14L277.749 182.062Z" fill="#FFB8B8"/>
<path d="M238.964 145.975L236.303 147.115C236.303 147.115 233.641 152.813 233.261 154.712C232.88 156.611 228.317 179.403 229.458 182.062C230.599 184.721 242.006 198.776 242.006 198.776L248.47 191.939L238.964 179.023L241.626 162.689L238.964 145.975Z" fill="#2F2E41"/>
<path d="M275.848 146.355L280.879 146.779L281.932 147.115C281.932 147.115 292.579 175.985 290.297 180.543C288.016 185.101 278.129 193.458 278.129 193.458L275.468 181.683L280.411 177.124L275.468 161.93L275.848 146.355Z" fill="#2F2E41"/>
<path d="M266.517 122.524C266.517 122.524 268.804 118.235 263.771 117.845C263.771 117.845 259.195 115.116 255.534 118.235C255.534 118.235 252.331 117.455 251.416 119.795C251.416 119.795 250.958 118.625 252.331 117.845C252.331 117.845 249.128 117.066 249.128 120.965C249.128 120.965 247.755 124.864 249.128 128.373C250.501 131.882 250.958 132.272 250.958 132.272C250.958 132.272 248.702 124.915 254.194 124.525C259.685 124.135 265.83 120.77 266.288 125.059C266.745 129.348 267.661 130.518 267.661 130.518C267.661 130.518 271.779 124.279 266.517 122.524Z" fill="#2F2E41"/>
</g>
<defs>
<clipPath id="clip0">
<rect width="328" height="293" fill="white"/>
</clipPath>
</defs>
</svg>
